<mxfile host="app.diagrams.net" modified="2021-07-05T19:45:57.464Z" agent="5.0 (Windows NT 10.0; Win64; x64) AppleWebKit/537.36 (KHTML, like Gecko) Chrome/91.0.4472.124 Safari/537.36" etag="GVUZoNaogUmzMxcAEB36" version="14.8.4" type="github">
  <diagram id="JbLCxjxL2JevZKYBrkLI" name="Page-1">
    <mxGraphModel dx="1422" dy="705" grid="1" gridSize="10" guides="1" tooltips="1" connect="1" arrows="1" fold="1" page="1" pageScale="1" pageWidth="850" pageHeight="1100" math="0" shadow="0">
      <root>
        <mxCell id="0" />
        <mxCell id="1" parent="0" />
        <mxCell id="EOhQ97Wz-maHUjDynbwc-1" value="" style="shape=cylinder3;whiteSpace=wrap;html=1;boundedLbl=1;backgroundOutline=1;size=15;lid=0;" vertex="1" parent="1">
          <mxGeometry x="390" y="240" width="60" height="160" as="geometry" />
        </mxCell>
        <mxCell id="EOhQ97Wz-maHUjDynbwc-2" value="45" style="rounded=1;whiteSpace=wrap;html=1;" vertex="1" parent="1">
          <mxGeometry x="395" y="370" width="50" height="20" as="geometry" />
        </mxCell>
        <mxCell id="EOhQ97Wz-maHUjDynbwc-3" value="1" style="rounded=1;whiteSpace=wrap;html=1;" vertex="1" parent="1">
          <mxGeometry x="395" y="270" width="50" height="20" as="geometry" />
        </mxCell>
        <mxCell id="EOhQ97Wz-maHUjDynbwc-5" value="23" style="rounded=1;whiteSpace=wrap;html=1;" vertex="1" parent="1">
          <mxGeometry x="395" y="340" width="50" height="20" as="geometry" />
        </mxCell>
        <mxCell id="EOhQ97Wz-maHUjDynbwc-6" value="12" style="rounded=1;whiteSpace=wrap;html=1;" vertex="1" parent="1">
          <mxGeometry x="395" y="300" width="50" height="20" as="geometry" />
        </mxCell>
      </root>
    </mxGraphModel>
  </diagram>
</mxfile>
